# xmcd
# Copyright (C) 1995-1998 Ti Kan
#
# Track frame offsets:
#       150
#       26373
#       43740
#       66946
#       87014
#       117348
#       137192
#       165868
#       193780
#       197251
#       212184
#       231419
#       251758
#       271936
#
# Disc length: 3927 seconds
#
# Revision: 0
# Processed by: cddbd v1.5.2PL0 Copyright (c) Steve Scherf et al.
# Submitted via: CD-Import v1.0
#
DISCID=c30f550e
DTITLE=Kevin Drew - Spirit If...
DYEAR=1900
DGENRE=
TTITLE0=Farewell To The Pressure Kids
TTITLE1=Tbtf
TTITLE2=F--Ked Up Kid
TTITLE3=Safety Bricks
TTITLE4=Lucky Ones
TTITLE5=Broke Me Up
TTITLE6=Gang Bang Suicide
TTITLE7=Frightening Lives
TTITLE8=Underneath The Skin
TTITLE9=Big Love
TTITLE10=Backed Out On The...
TTITLE11=Aging Faces - Losing Places
TTITLE12=Bodhi Sappy Weekend
TTITLE13=When It Begins
EXTD=
EXTT0=
EXTT1=
EXTT2=
EXTT3=
EXTT4=
EXTT5=
EXTT6=
EXTT7=
EXTT8=
EXTT9=
EXTT10=
EXTT11=
EXTT12=
EXTT13=
PLAYORDER=
